<svg height="734" width="720" xmlns="http://www.w3.org/2000/svg">
<rect height="734" fill="#555" width="720"></rect>
<text fill="#7f7" font-family="Courier New" font-size="12" xml:space="preserve">
<tspan x="10" y="26">4 megabytes installed</tspan>
<tspan x="10" y="42"></tspan>
<tspan x="10" y="58">node_modules</tspan>
<tspan x="10" y="74">├── UNMET PEER DEPENDENCY grunt@&gt;=1.0.1</tspan>
<tspan x="10" y="90">└─┬ grunt-release@0.14.0 </tspan>
<tspan x="10" y="106">  ├── q@1.5.0 </tspan>
<tspan x="10" y="122">  ├── semver@5.3.0 </tspan>
<tspan x="10" y="138">  ├─┬ shelljs@0.7.7 </tspan>
<tspan x="10" y="154">  │ ├─┬ glob@7.1.1 </tspan>
<tspan x="10" y="170">  │ │ ├── fs.realpath@1.0.0 </tspan>
<tspan x="10" y="186">  │ │ ├─┬ inflight@1.0.6 </tspan>
<tspan x="10" y="202">  │ │ │ └── wrappy@1.0.2 </tspan>
<tspan x="10" y="218">  │ │ ├── inherits@2.0.3 </tspan>
<tspan x="10" y="234">  │ │ ├─┬ minimatch@3.0.3 </tspan>
<tspan x="10" y="250">  │ │ │ └─┬ brace-expansion@1.1.7 </tspan>
<tspan x="10" y="266">  │ │ │   ├── balanced-match@0.4.2 </tspan>
<tspan x="10" y="282">  │ │ │   └── concat-map@0.0.1 </tspan>
<tspan x="10" y="298">  │ │ ├── once@1.4.0 </tspan>
<tspan x="10" y="314">  │ │ └── path-is-absolute@1.0.1 </tspan>
<tspan x="10" y="330">  │ ├── interpret@1.0.2 </tspan>
<tspan x="10" y="346">  │ └─┬ rechoir@0.6.2 </tspan>
<tspan x="10" y="362">  │   └─┬ resolve@1.3.2 </tspan>
<tspan x="10" y="378">  │     └── path-parse@1.0.5 </tspan>
<tspan x="10" y="394">  └─┬ superagent@1.8.5 </tspan>
<tspan x="10" y="410">    ├── component-emitter@1.2.1 </tspan>
<tspan x="10" y="426">    ├── cookiejar@2.0.6 </tspan>
<tspan x="10" y="442">    ├─┬ debug@2.6.3 </tspan>
<tspan x="10" y="458">    │ └── ms@0.7.2 </tspan>
<tspan x="10" y="474">    ├── extend@3.0.0 </tspan>
<tspan x="10" y="490">    ├─┬ form-data@1.0.0-rc3 </tspan>
<tspan x="10" y="506">    │ ├── async@1.5.2 </tspan>
<tspan x="10" y="522">    │ ├─┬ combined-stream@1.0.5 </tspan>
<tspan x="10" y="538">    │ │ └── delayed-stream@1.0.0 </tspan>
<tspan x="10" y="554">    │ └─┬ mime-types@2.1.15 </tspan>
<tspan x="10" y="570">    │   └── mime-db@1.27.0 </tspan>
<tspan x="10" y="586">    ├── formidable@1.0.17 </tspan>
<tspan x="10" y="602">    ├── methods@1.1.2 </tspan>
<tspan x="10" y="618">    ├── mime@1.3.4 </tspan>
<tspan x="10" y="634">    ├── qs@2.3.3 </tspan>
<tspan x="10" y="650">    ├─┬ readable-stream@1.0.27-1 </tspan>
<tspan x="10" y="666">    │ ├── core-util-is@1.0.2 </tspan>
<tspan x="10" y="682">    │ ├── isarray@0.0.1 </tspan>
<tspan x="10" y="698">    │ └── string_decoder@0.10.31 </tspan>
<tspan x="10" y="714">    └── reduce-component@1.0.1</tspan>
</text>
</svg>
